<svg width="26" height="26" viewBox="0 0 26 26" fill="none" xmlns="http://www.w3.org/2000/svg">
<path d="M16.575 18.0916L18.0917 16.575L14.0833 12.5666V7.58329H11.9167V13.4333L16.575 18.0916ZM13 23.8333C11.5014 23.8333 10.093 23.5489 8.77499 22.9802C7.45693 22.4114 6.31041 21.6395 5.33541 20.6645C4.36041 19.6895 3.58853 18.543 3.01978 17.225C2.45103 15.9069 2.16666 14.4986 2.16666 13C2.16666 11.5013 2.45103 10.093 3.01978 8.77496C3.58853 7.4569 4.36041 6.31038 5.33541 5.33538C6.31041 4.36038 7.45693 3.5885 8.77499 3.01975C10.093 2.451 11.5014 2.16663 13 2.16663C14.4986 2.16663 15.9069 2.451 17.225 3.01975C18.543 3.5885 19.6896 4.36038 20.6646 5.33538C21.6396 6.31038 22.4114 7.4569 22.9802 8.77496C23.5489 10.093 23.8333 11.5013 23.8333 13C23.8333 14.4986 23.5489 15.9069 22.9802 17.225C22.4114 18.543 21.6396 19.6895 20.6646 20.6645C19.6896 21.6395 18.543 22.4114 17.225 22.9802C15.9069 23.5489 14.4986 23.8333 13 23.8333ZM13 21.6666C15.4014 21.6666 17.4462 20.8225 19.1344 19.1343C20.8226 17.4461 21.6667 15.4013 21.6667 13C21.6667 10.5986 20.8226 8.55378 19.1344 6.86558C17.4462 5.17739 15.4014 4.33329 13 4.33329C10.5986 4.33329 8.55381 5.17739 6.86561 6.86558C5.17742 8.55378 4.33332 10.5986 4.33332 13C4.33332 15.4013 5.17742 17.4461 6.86561 19.1343C8.55381 20.8225 10.5986 21.6666 13 21.6666Z" fill="#455A64"/>
</svg>
