<svg width="22" height="22" viewBox="0 0 22 22" fill="none" xmlns="http://www.w3.org/2000/svg">
<path d="M3.04656 11.927C3.36774 9.17492 3.83703 7.11135 4.27225 5.6453C4.62911 4.44318 4.80754 3.84213 5.53926 3.29606C6.27098 2.75 7.01889 2.75 8.5147 2.75H13.4853C14.9811 2.75 15.729 2.75 16.4608 3.29606C17.1925 3.84213 17.371 4.44318 17.7278 5.6453C18.163 7.11135 18.6323 9.17492 18.9535 11.927C19.332 15.1706 19.5213 16.7923 18.4275 18.0211C17.3337 19.25 15.5612 19.25 12.0161 19.25H9.984C6.43887 19.25 4.66631 19.25 3.57254 18.0211C2.47877 16.7923 2.66803 15.1706 3.04656 11.927Z" stroke="#9C9C9C" stroke-width="2" stroke-linecap="round" stroke-linejoin="round"/>
<path d="M8.25 6.41663C8.25 7.93541 9.4812 9.16663 11 9.16663C12.5188 9.16663 13.75 7.93541 13.75 6.41663" stroke="#9C9C9C" stroke-width="2" stroke-linecap="round" stroke-linejoin="round"/>
</svg>
