<svg width="24" height="24" viewBox="0 0 24 24" fill="none" xmlns="http://www.w3.org/2000/svg">
<path d="M21.4876 9.59547L12.8924 2.80982C12.6383 2.60915 12.3239 2.5 12 2.5C11.6761 2.5 11.3617 2.60915 11.1076 2.80982L2.5124 9.59547C2.1888 9.85095 2 10.2405 2 10.6528C2 11.3969 2.60315 12 3.34716 12H4V15.5C4 18.3284 4 19.7426 4.87868 20.6213C5.75736 21.5 6.67157 21.5 9.5 21.5C9.5 20.5654 9.5 15.5981 9.70096 15.25C9.83261 15.022 10.022 14.8326 10.25 14.701C10.5981 14.5 11.0654 14.5 12 14.5C12.9346 14.5 13.4019 14.5 13.75 14.701C13.978 14.8326 14.1674 15.022 14.299 15.25C14.5 15.5981 14.5 16.0654 14.5 17V21.5C17.3284 21.5 18.2426 21.5 19.1213 20.6213C20 19.7426 20 18.3284 20 15.5V12H20.6528C21.3969 12 22 11.3969 22 10.6528C22 10.2405 21.8112 9.85095 21.4876 9.59547Z" fill="#2E2E2E" stroke="#2E2E2E" stroke-width="1.5" stroke-linecap="round" stroke-linejoin="round"/>
</svg>
