<svg width="13" height="14" viewBox="0 0 13 14" fill="none" xmlns="http://www.w3.org/2000/svg">
<path d="M4.25637 2.12824C4.25637 1.42004 4.83022 0.846191 5.53842 0.846191C6.24663 0.846191 6.82048 1.42004 6.82048 2.12824C6.82048 2.83645 6.24663 3.41029 5.53842 3.41029C4.83022 3.41029 4.25637 2.83645 4.25637 2.12824ZM0.153809 5.9744V4.94876C0.153809 4.76106 0.208168 4.58722 0.296373 4.43594C0.208168 4.28465 0.153809 4.11081 0.153809 3.92311V2.89747C0.153809 2.33183 0.613809 1.87183 1.17945 1.87183H2.20509C2.77073 1.87183 3.23073 2.33183 3.23073 2.89747V3.92311C3.23073 4.11081 3.17637 4.28465 3.08817 4.43594C3.17637 4.58722 3.23073 4.76106 3.23073 4.94876V5.9744C3.23073 6.54004 2.77073 7.00004 2.20509 7.00004H1.17945C0.613809 7.00004 0.153809 6.54004 0.153809 5.9744ZM2.20509 4.94876H1.17945V5.9744H2.20509V4.94876ZM1.17945 3.92311H2.20509V2.89747H1.17945V3.92311ZM12.4615 11.359C12.4615 12.3488 11.6564 13.1539 10.6666 13.1539C9.9533 13.1539 9.34099 12.7323 9.05176 12.1282H6.30766C6.02407 12.1282 5.79483 11.8985 5.79483 11.6154C5.79483 11.3323 6.02407 11.1026 6.30766 11.1026H6.82048V9.93594C6.82048 9.7426 6.7133 9.56722 6.54099 9.47901L5.09073 8.73901C4.57535 8.47235 4.25637 7.94876 4.25637 7.37132V5.17799C4.25637 4.81081 4.4015 4.48158 4.66612 4.25029C4.98971 3.96722 5.51791 3.82876 5.98509 3.96004L8.4574 4.94927H9.30612C9.88612 4.94927 10.3953 5.34055 10.5446 5.90106L11.262 8.59183C11.361 8.96414 11.3995 9.33696 11.4061 9.72927C12.0266 10.0123 12.461 10.6349 12.461 11.36L12.4615 11.359ZM5.55945 7.8267L5.79483 7.9467V4.98824L5.67124 4.93901C5.53227 4.93132 5.40919 4.96209 5.34099 5.02209C5.31124 5.04773 5.28201 5.08619 5.28201 5.17747V7.37081C5.28201 7.56311 5.38817 7.73799 5.55945 7.8267ZM7.84612 9.93594V11.1026H8.89791C9.01022 10.3298 9.61125 9.71799 10.38 9.59337C10.3661 9.3426 10.3369 9.10004 10.2718 8.85542L9.55484 6.16517C9.52458 6.05286 9.42304 5.97491 9.30714 5.97491H8.35945C8.29432 5.97491 8.22971 5.9626 8.16919 5.9385L6.82099 5.39901V8.47081L7.00766 8.56619C7.52509 8.83029 7.84663 9.35542 7.84663 9.93645L7.84612 9.93594ZM11.4359 11.359C11.4359 10.9349 11.0907 10.5898 10.6666 10.5898C10.2425 10.5898 9.8974 10.9349 9.8974 11.359C9.8974 11.7831 10.2425 12.1282 10.6666 12.1282C11.0907 12.1282 11.4359 11.7831 11.4359 11.359ZM4.4415 9.68004C4.64458 10.0236 4.76919 10.419 4.76919 10.8462C4.76919 12.1185 3.73381 13.1539 2.4615 13.1539C1.18919 13.1539 0.153809 12.1185 0.153809 10.8462C0.153809 10.1175 0.499962 9.4744 1.02868 9.05132H0.666629C0.383039 9.05132 0.153809 8.82158 0.153809 8.5385C0.153809 8.25542 0.383039 8.02568 0.666629 8.02568H2.54253C3.06458 8.02568 3.5456 8.2867 3.83124 8.72363C3.83124 8.72363 4.43278 9.64414 4.4415 9.68004ZM3.74355 10.8462C3.74355 10.5847 3.66407 10.3416 3.52868 10.1385L3.51996 10.1247C3.28868 9.78671 2.90099 9.56414 2.4615 9.56414C1.75432 9.56414 1.17945 10.1395 1.17945 10.8462C1.17945 11.5529 1.75432 12.1282 2.4615 12.1282C3.16868 12.1282 3.74355 11.5529 3.74355 10.8462Z" fill="black"/>
</svg>
